# xmcd
#
# Track frame offsets: 
#        150
#        22062
#        42082
#        56845
#        73507
#        91230
#        104812
#        123217
#        145510
#        166047
#        180837
#        201352
#        217142
#        243022
#        262280
#        278992
#
# Disc length: 3978 seconds
#
# Revision: 0
# Processed by: cddbd v1.5.2PL0 Copyright (c) Steve Scherf et al.
# Submitted via: ExactAudioCopyFreeDBPlugin 1.0
#
DISCID=ea0f8810
DTITLE=八代亜紀 - 八代亜紀全曲集　これからがある
DYEAR=2001
DGENRE=JPop
TTITLE0=これからがある
TTITLE1=あかんたれ
TTITLE2=おんな港町
TTITLE3=愛の終着駅
TTITLE4=恋歌
TTITLE5=もう一度逢いたい
TTITLE6=あした天気になーれ
TTITLE7=愛を信じたい
TTITLE8=風のブルース
TTITLE9=なみだ恋
TTITLE10=花（ブーケ）束
TTITLE11=雨の慕情
TTITLE12=銀座暮色
TTITLE13=愛の影
TTITLE14=ともしび
TTITLE15=舟歌
EXTD=
EXTT0=
EXTT1=
EXTT2=
EXTT3=
EXTT4=
EXTT5=
EXTT6=
EXTT7=
EXTT8=
EXTT9=
EXTT10=
EXTT11=
EXTT12=
EXTT13=
EXTT14=
EXTT15=
PLAYORDER=
